Coordinates
version=1
nRows=24
nColumns=38
inDegrees=no

Units are S.I. units (second, meters, Newtons, ...)
If the header above contains a line with 'inDegrees', this indicates whether rotational values are in degrees (yes) or radians (no).

endheader
time	pelvis_tilt	pelvis_list	pelvis_rotation	pelvis_tx	pelvis_ty	pelvis_tz	hip_flexion_r	hip_adduction_r	hip_rotation_r	knee_angle_r	ankle_angle_r	subtalar_angle_r	mtp_angle_r	hip_flexion_l	hip_adduction_l	hip_rotation_l	knee_angle_l	ankle_angle_l	subtalar_angle_l	mtp_angle_l	lumbar_extension	lumbar_bending	lumbar_rotation	arm_flex_r	arm_add_r	arm_rot_r	elbow_flex_r	pro_sup_r	wrist_flex_r	wrist_dev_r	arm_flex_l	arm_add_l	arm_rot_l	elbow_flex_l	pro_sup_l	wrist_flex_l	wrist_dev_l
0.95	-2.9257	1.41573	-1.82231	0.670252	1.0338	1.04263	-0.311706	-0.00248391	-0.180012	0.408269	0.00208384	0	0	0.187323	0.0564591	-0.273509	0.172732	-0.162189	0	0	-0.322519	0.000572674	-0.0412421	-0.225603	-0.261618	0.00806367	0.572222	0.158706	0	0	-0.347304	-0.39801	0.686978	0.628314	0.968678	0	0
0.96	-2.91235	1.41334	-1.84179	0.6705	1.0456	1.04119	-0.323892	-0.00833625	-0.173608	0.412462	0.00158706	0	0	0.187388	0.0598129	-0.274497	0.175184	-0.162179	0	0	-0.323122	-0.00715451	-0.0366381	-0.227582	-0.260099	0.00575434	0.573983	0.159779	0	0	-0.349073	-0.397073	0.686901	0.621421	0.966805	0	0
0.97	-2.89963	1.41029	-1.86107	0.670709	1.0575	1.03997	-0.336168	-0.0148383	-0.165654	0.416628	6.01648e-05	0	0	0.187094	0.0629221	-0.276928	0.184896	-0.16267	0	0	-0.324432	-0.0149857	-0.0311808	-0.229912	-0.25838	0.00235541	0.57592	0.162513	0	0	-0.349113	-0.395902	0.68773	0.612434	0.967128	0	0
0.98	-2.893	1.40681	-1.87398	0.670726	1.06962	1.03898	-0.347763	-0.0217156	-0.15817	0.421925	-0.00369345	0	0	0.186663	0.0648433	-0.281448	0.202318	-0.163771	0	0	-0.326125	-0.0219575	-0.0254392	-0.23269	-0.255876	-0.0043664	0.577845	0.167817	0	0	-0.348234	-0.394361	0.687649	0.602097	0.969657	0	0
0.99	-2.88757	1.40248	-1.88507	0.670713	1.08204	1.03807	-0.360234	-0.0282802	-0.149549	0.427467	-0.0111283	0	0	0.186951	0.0647678	-0.289785	0.231334	-0.162528	0	0	-0.327713	-0.0281277	-0.0207872	-0.236036	-0.267691	0.0344509	0.583992	0.121842	0	0	-0.347738	-0.393594	0.689192	0.592435	0.969032	0	0
1	-2.87924	1.39948	-1.8982	0.670637	1.09484	1.03708	-0.372568	-0.0342015	-0.140133	0.43337	-0.0180404	0	0	0.186981	0.0651405	-0.296415	0.2613	-0.164266	0	0	-0.327153	-0.0346599	-0.0156511	-0.241495	-0.266416	0.0314501	0.586902	0.121072	0	0	-0.34804	-0.393426	0.687099	0.58331	0.972233	0	0
1.01	-2.87051	1.39681	-1.91098	0.670486	1.10792	1.0362	-0.383467	-0.0403836	-0.130702	0.440961	-0.0225409	0	0	0.184214	0.0667554	-0.297596	0.286635	-0.170231	0	0	-0.32557	-0.0411187	-0.0103018	-0.24752	-0.256941	0.00230521	0.586457	0.147922	0	0	-0.346588	-0.39622	0.694967	0.575311	0.966727	0	0
1.02	-2.86146	1.39301	-1.92438	0.670255	1.12118	1.03565	-0.393824	-0.0479727	-0.119797	0.450386	-0.0346252	0	0	0.17952	0.0688119	-0.300687	0.308613	-0.180629	0	0	-0.321841	-0.0481183	-0.0106123	-0.251051	-0.258296	0.0104774	0.586859	0.142483	0	0	-0.350545	-0.396394	0.692309	0.566874	0.96472	0	0
1.03	-2.83718	1.38815	-1.95248	0.669948	1.13445	1.03554	-0.402768	-0.0585617	-0.108913	0.462344	-0.0485825	0	0	0.174184	0.0747751	-0.301577	0.320269	-0.197759	0	0	-0.317834	-0.0585052	-0.0127961	-0.251233	-0.258578	0.020644	0.582157	0.135358	0	0	-0.354395	-0.396807	0.686925	0.558249	0.960115	0	0
1.04	-2.79758	1.38423	-1.99444	0.669605	1.14777	1.03577	-0.407764	-0.0708221	-0.0975887	0.47731	-0.0679728	0	0	0.173022	0.0814415	-0.30459	0.33303	-0.216697	0	0	-0.312297	-0.071896	-0.0175511	-0.246433	-0.230121	-0.0580072	0.562853	0.225042	0	0	-0.369279	-0.38269	0.606656	0.542923	1.02341	0	0
1.05	-2.75618	1.38058	-2.03618	0.669153	1.16118	1.03627	-0.410648	-0.0825677	-0.0853678	0.4943	-0.096627	0	0	0.174229	0.0857	-0.310224	0.355691	-0.23035	0	0	-0.293075	-0.0867223	-0.0445949	-0.218693	-0.293592	0.214779	0.543807	0	0	0	-0.38488	-0.38701	0.627427	0.537044	0.958944	0	0
1.06	-2.71856	1.37757	-2.072	0.668472	1.17451	1.03701	-0.41089	-0.0927102	-0.0717589	0.514655	-0.122323	0	0	0.175027	0.0888825	-0.311781	0.381687	-0.238022	0	0	-0.277794	-0.0991563	-0.065089	-0.205825	-0.290402	0.244344	0.521234	0	0	0	-0.39887	-0.383838	0.610443	0.526199	0.948024	0	0
1.07	-2.68993	1.37457	-2.09737	0.667504	1.18764	1.03785	-0.409169	-0.101209	-0.0596567	0.538337	-0.142763	0	0	0.173996	0.0917969	-0.310046	0.405562	-0.241939	0	0	-0.265394	-0.108572	-0.0824904	-0.202577	-0.283213	0.238513	0.509591	6.83836e-05	0	0	-0.406868	-0.385563	0.61214	0.518846	0.928636	0	0
1.08	-2.66169	1.37446	-2.12095	0.666318	1.20087	1.03854	-0.401752	-0.108498	-0.051075	0.565696	-0.171756	0	0	0.174566	0.094362	-0.305555	0.426488	-0.244892	0	0	-0.249446	-0.116137	-0.102869	-0.196049	-0.283318	0.266054	0.496653	0	0	0	-0.418956	-0.384509	0.599976	0.51246	0.922328	0	0
1.09	-2.45674	1.39176	-2.32675	0.664724	1.2143	1.0346	-0.248167	-0.169818	-0.14195	0.834088	-0.216059	0	0	0.213808	0.116768	-0.297742	0.447256	-0.241574	0	0	-0.19214	-0.141412	-0.115036	-0.201457	-0.284113	0.28956	0.490199	0	0	0	-0.439849	-0.387385	0.586659	0.513749	0.919485	0	0
1.1	-2.61982	1.37819	-2.15208	0.663462	1.22697	1.04003	-0.371693	-0.115816	-0.0306467	0.638665	-0.245449	0	0	0.171443	0.100553	-0.286108	0.452672	-0.24645	0	0	-0.234223	-0.121102	-0.111383	-0.205219	-0.285065	0.281981	0.492825	0	0	0	-0.411293	-0.393048	0.598025	0.500671	0.926381	0	0
1.11	-2.6112	1.37892	-2.15753	0.662381	1.23945	1.04059	-0.353089	-0.116056	-0.0156982	0.684698	-0.281203	0	0	0.163999	0.10317	-0.280316	0.459879	-0.246071	0	0	-0.241599	-0.119064	-0.0931279	-0.228442	-0.272601	0.19992	0.506388	0.0301575	0	0	-0.388673	-0.402928	0.600327	0.497085	0.945459	0	0
1.12	-2.60406	1.37921	-2.16242	0.661074	1.25162	1.04175	-0.330334	-0.116752	-0.000120812	0.735748	-0.312915	0	0	0.155961	0.10523	-0.282196	0.463648	-0.242098	0	0	-0.247789	-0.117578	-0.0760933	-0.244082	-0.27955	0.206783	0.521919	0	0	0	-0.359605	-0.422615	0.65119	0.500791	0.917526	0	0
1.13	-2.59646	1.37875	-2.16945	0.660064	1.26339	1.0426	-0.305021	-0.118016	0.0149586	0.790417	-0.344034	0	0	0.145357	0.10872	-0.286104	0.465391	-0.236741	0	0	-0.256741	-0.11694	-0.0581732	-0.259431	-0.276162	0.173836	0.534165	0.00553009	0	0	-0.335717	-0.435984	0.661023	0.505948	0.924452	0	0
1.14	-2.58874	1.37725	-2.17775	0.659133	1.27469	1.04351	-0.277201	-0.119919	0.0299454	0.84774	-0.372146	0	0	0.133598	0.113967	-0.289333	0.466564	-0.230954	0	0	-0.267413	-0.117402	-0.0410347	-0.271404	-0.27534	0.153386	0.54627	0.00268602	0	0	-0.312662	-0.44938	0.66441	0.515019	0.932438	0	0
1.15	-2.56019	1.37884	-2.20744	0.658556	1.28592	1.04431	-0.242912	-0.122006	0.045136	0.904106	-0.395741	0	0	0.126692	0.121225	-0.291345	0.466594	-0.225136	0	0	-0.240236	-0.12566	-0.0843868	-0.242904	-0.282935	0.214527	0.521976	0	0	0	-0.35157	-0.4501	0.618036	0.529629	0.924088	0	0
1.16	-2.54164	1.37761	-2.22793	0.658102	1.2968	1.04526	-0.211872	-0.123373	0.0592968	0.957362	-0.405786	0	0	0.1159	0.128281	-0.294984	0.465714	-0.218677	0	0	-0.218638	-0.134547	-0.126383	-0.213316	-0.287681	0.271853	0.498312	0	0	0	-0.389461	-0.451853	0.573868	0.548373	0.912975	0	0
1.17	-2.53292	1.37472	-2.23864	0.657842	1.30741	1.04598	-0.183179	-0.123266	0.0725213	1.00845	-0.395029	0	0	0.101459	0.134503	-0.298279	0.463805	-0.212283	0	0	-0.235562	-0.135396	-0.103948	-0.228262	-0.282945	0.227053	0.514911	0.0045901	0	0	-0.368222	-0.463221	0.539361	0.561581	0.962265	0	0
1.18	-2.54453	1.36957	-2.2271	0.657131	1.31766	1.04728	-0.158114	-0.121656	0.0850012	1.05802	-0.367207	0	0	0.083066	0.137742	-0.30342	0.459749	-0.206378	0	0	-0.285701	-0.130778	-0.0267729	-0.281642	-0.236957	0.00490987	0.55612	0.133345	0	0	-0.269698	-0.508089	0.651291	0.580587	0.936912	0	0
